PathFileType	4	(X/Y/Z)	C:\Users\Biomechanik\SynologyDrive\AlexP\Athlete_03\Athlete_3_22_07_06\sq_70_EMG\marker_experimental.trc																																																																																																																																																																												
DataRate	CameraRate	NumFrames	NumMarkers	Units	OrigDataRate	OrigDataStartFrame	OrigNumFrames																																																																																																																																																																								
200	200	4	58	mm	200	0	1537																																																																																																																																																																								
Frame#	Time	BL			BR			GLAB			RFHD			LFHD			C7			T6			SPINMOL			SPINM2			SPINM3			T12			BELTOL			BELT2			BELT3			SACROL			SACR2			SACR3			LTHOL			LTH2			LTH3			LSHAOL			LSHA2			LSHA3			LHEE			LTOE			LM5			RTHOL			RTH2			RTH3			RSHAOL			RSHA2			RSHA3			RHEE			RTOE			RM5			STRN			XIPH			LACR			LUAOL			LUA2			LUA3			LLAOL			LLA2			LLA3			LWRU			RACR			RUAOL			RUA3			RLAOL			RLA2			RLA3			RWRU			USERMO0			USERMO1			USERMO2			USERMO3			USERMO4			USERMO5		
		X1	Y1	Z1	X2	Y2	Z2	X3	Y3	Z3	X4	Y4	Z4	X5	Y5	Z5	X6	Y6	Z6	X7	Y7	Z7	X8	Y8	Z8	X9	Y9	Z9	X10	Y10	Z10	X11	Y11	Z11	X12	Y12	Z12	X13	Y13	Z13	X14	Y14	Z14	X15	Y15	Z15	X16	Y16	Z16	X17	Y17	Z17	X18	Y18	Z18	X19	Y19	Z19	X20	Y20	Z20	X21	Y21	Z21	X22	Y22	Z22	X23	Y23	Z23	X24	Y24	Z24	X25	Y25	Z25	X26	Y26	Z26	X27	Y27	Z27	X28	Y28	Z28	X29	Y29	Z29	X30	Y30	Z30	X31	Y31	Z31	X32	Y32	Z32	X33	Y33	Z33	X34	Y34	Z34	X35	Y35	Z35	X36	Y36	Z36	X37	Y37	Z37	X38	Y38	Z38	X39	Y39	Z39	X40	Y40	Z40	X41	Y41	Z41	X42	Y42	Z42	X43	Y43	Z43	X44	Y44	Z44	X45	Y45	Z45	X46	Y46	Z46	X47	Y47	Z47	X48	Y48	Z48	X49	Y49	Z49	X50	Y50	Z50	X51	Y51	Z51	X52	Y52	Z52	X53	Y53	Z53	X54	Y54	Z54	X55	Y55	Z55	X56	Y56	Z56	X57	Y57	Z57	X58	Y58	Z58
																																																																																																																																																																															
1	0	131.7092896	1225.07019	-2273.295166	230.8271179	1342.822632	-56.25108719	546.0641479	1302.52002	-1161.168335	515.3374634	1362.157349	-1089.4198	514.6638184	1349.995361	-1244.398682	291.2977905	1372.028687	-1163.557251	118.8516769	1243.564575	-1160.02417	96.35884094	1212.930786	-1164.764404	63.21123886	1160.328369	-1114.359131	73.06343842	1155.585449	-1163.166992	60.33442307	1097.615234	-1160.470581	28.24283791	1072.693848	-1153.289673	14.27349758	1014.484863	-1100.534058	8.571281433	1013.745178	-1150.345581	1.593315959	936.708374	-1179.569092	10.70397758	946.3878174	-1130.181641	-24.6075592	890.9906616	-1139.454956	128.8458099	726.1140137	-1407.018188	88.4287796	657.1854248	-1405.12146	135.7197266	665.7857056	-1420.408447	109.7263565	329.5036621	-1517.240234	74.61521912	259.1087036	-1524.322754	122.3198395	270.6172791	-1533.086548	68.49597931	37.7121315	-1498.595215	272.9910889	49.45191956	-1547.076904	209.0691071	23.84904289	-1640.321899	91.4369278	701.734375	-897.8178101	130.8056641	641.3430176	-863.2149658	85.26690674	641.1995239	-884.4645996	53.4734993	323.2531128	-795.2731323	98.03688049	265.9308472	-763.3893433	53.76934814	262.3400879	-786.638916	45.65393448	39.07406235	-815.4207764	244.797699	45.84922409	-756.9244995	183.7227478	36.0256424	-665.427063	359.4793396	1219.088989	-1167.898071	328.3882141	1070.937134	-1155.301636	232.949585	1310.854858	-1351.178101	101.0257187	1225.49353	-1367.658203	66.71006775	1183.502075	-1329.878052	66.99734497	1181.387817	-1381.141113	48.362854	1147.639526	-1461.890259	91.49856567	1158.337646	-1509.715576	91.17546082	1193.943115	-1474.219116	140.4468384	1233.102905	-1529.552979	260.2671814	1323.202515	-976.6466675	130.7553101	1229.675903	-932.6743164	76.10534668	1206.906982	-921.8577271	82.57091522	1207.075562	-846.8423462	133.9804382	1246.012573	-851.6801758	120.8033905	1233.542358	-803.4008179	157.6309814	1271.622681	-782.0629272	0.00307414	0.0108197	-0.020882601	0.000442169	0	0	0	0.010554	6.46E-19	0.095130399	0.0309962	-0.174667999	0.156593993	1.606809974	-0.067416199	1.796810031	0	0
2	0.005	131.6873779	1225.204224	-2273.226807	230.7040405	1342.842529	-56.19500351	545.9738159	1302.534424	-1161.279175	515.3157349	1362.179443	-1089.519287	514.5332642	1350.025513	-1244.482422	291.2275085	1372.11145	-1163.552979	118.7726135	1243.61084	-1159.959473	96.28242493	1212.973755	-1164.713989	63.13968658	1160.364014	-1114.312378	73.00306702	1155.62146	-1163.11731	60.26782608	1097.650879	-1160.418701	28.18995285	1072.71814	-1153.244263	14.21645832	1014.503235	-1100.494873	8.52268219	1013.767761	-1150.308105	1.535116673	936.6966553	-1179.563721	10.64207935	946.3930054	-1130.180054	-24.64624214	890.9799805	-1139.444702	128.7570343	726.0805054	-1406.94812	88.32029724	657.1664429	-1405.01416	135.6095428	665.7467041	-1420.313354	109.629097	329.4682617	-1517.058594	74.56115723	259.0527954	-1524.174683	122.2563858	270.5961914	-1532.931519	68.51091766	37.69110489	-1498.559204	273.0002441	49.4278183	-1547.028076	209.061264	23.90859795	-1640.280518	91.21724701	701.7285156	-897.8653564	130.5624084	641.3609009	-863.2052612	85.05847168	641.1930542	-884.5342407	53.37698364	323.1639404	-795.4942627	97.95575714	265.893219	-763.5301514	53.73954773	262.2575684	-786.8675537	45.92028427	39.06095505	-815.684021	244.8960724	45.8350029	-756.7127686	183.6435547	36.03911972	-665.3649292	359.4058228	1219.181763	-1167.882568	328.3657837	1071.027466	-1155.283081	232.8532867	1310.939331	-1351.129761	100.8811798	1225.592529	-1367.591797	66.60780334	1183.582275	-1329.798218	66.86528778	1181.50769	-1381.064087	48.21059799	1147.768188	-1461.849243	91.3443222	1158.460693	-1509.68457	91.03970337	1194.058594	-1474.184814	140.3430939	1233.213501	-1529.516479	260.2015381	1323.26709	-976.600769	130.6947174	1229.724243	-932.6088257	76.08713531	1206.953369	-921.7796631	82.5154953	1207.113647	-846.7793579	133.9167786	1246.062134	-851.6068115	120.7295685	1233.579468	-803.3283081	157.5534973	1271.670532	-781.9881592	0.00985298	0.0113222	-0.0253383	0.00219951	0	0	0	0.0134913	-0.00815689	0.106288999	0.051074099	-0.232953995	0.186121002	1.765930057	-0.105420999	1.93671	0	0
3	0.01	131.6585388	1225.361328	-2273.148438	230.559021	1342.863403	-56.12696457	545.8710327	1302.558228	-1161.395752	515.2893066	1362.209717	-1089.621704	514.3832397	1350.069092	-1244.566162	291.1459351	1372.205933	-1163.536743	118.6836166	1243.663696	-1159.882324	96.1968689	1213.022827	-1164.652344	63.05913544	1160.404663	-1114.255371	72.9353714	1155.662598	-1163.056763	60.19301605	1097.692505	-1160.357056	28.13009262	1072.747314	-1153.190063	14.15174294	1014.524597	-1100.448975	8.466926575	1013.795166	-1150.264038	1.473434925	936.6994019	-1179.558228	10.57635689	946.4113159	-1130.178711	-24.69425201	890.9863281	-1139.435913	128.6612854	726.0459595	-1406.871094	88.19774628	657.1504517	-1404.89978	135.4889679	665.7041626	-1420.205811	109.5164261	329.4284668	-1516.855957	74.49755096	258.990448	-1524.01062	122.1826477	270.5726929	-1532.758057	68.52737427	37.66688919	-1498.519897	273.0101318	49.40067291	-1546.973145	209.0556793	23.97457886	-1640.231567	90.97000122	701.7198486	-897.9229736	130.2893372	641.3805542	-863.1976318	84.8259201	641.1831665	-884.617981	53.27494049	323.0621948	-795.7502441	97.86869812	265.8494568	-763.6931763	53.71178055	262.1615906	-787.1326294	46.2292099	39.0455246	-815.9881592	245.0117035	45.81790543	-756.472168	183.5504608	36.05502319	-665.2942505	359.3239746	1219.289185	-1167.856689	328.3396301	1071.13269	-1155.254883	232.7450409	1311.036987	-1351.069092	100.7285538	1225.698975	-1367.513062	66.49880981	1183.665405	-1329.709473	66.72650909	1181.633423	-1380.977905	48.04979324	1147.905396	-1461.803101	91.1789856	1158.594971	-1509.650269	90.89369202	1194.184082	-1474.146362	140.2282104	1233.337158	-1529.476563	260.1241455	1323.339355	-976.5427856	130.6221466	1229.779907	-932.5323486	76.06099701	1207.005737	-921.6900635	82.44884491	1207.156616	-846.7059326	133.8409882	1246.11731	-851.5222778	120.6433182	1233.621338	-803.2449951	157.4634399	1271.723877	-781.9026489	0.016628699	0.0117967	-0.029831801	0.0038359	3.82E-19	-0.00623708	0.000993288	0.016229	-0.0176009	0.116677999	0.071229801	-0.289777994	0.214927003	1.922880054	-0.141995996	2.075030088	0	0
4	0.015	131.621933	1225.541016	-2273.061035	230.3924255	1342.884644	-56.04698563	545.756958	1302.593506	-1161.513428	515.2578735	1362.249023	-1089.722046	514.21521	1350.128784	-1244.645508	291.0534363	1372.311157	-1163.505249	118.585907	1243.722534	-1159.792358	96.10347748	1213.077271	-1164.579224	62.97064972	1160.449829	-1114.1875	72.86133575	1155.708374	-1162.984985	60.11100769	1097.73999	-1160.285645	28.06389809	1072.781372	-1153.126709	14.07998562	1014.548889	-1100.396606	8.404383659	1013.827637	-1150.213501	1.409210205	936.7214355	-1179.553223	10.50867081	946.446106	-1130.17749	-24.75228119	891.0145264	-1139.429077	128.5612488	726.0117798	-1406.788818	88.06284332	657.1392212	-1404.782104	135.3600922	665.659729	-1420.088257	109.3892212	329.3848572	-1516.63562	74.42468262	258.9226379	-1523.833618	122.0990982	270.5471191	-1532.56897	68.54501343	37.63967514	-1498.478027	273.0205078	49.37086868	-1546.912842	209.0529633	24.04636002	-1640.175903	90.69890594	701.7079468	-897.9910278	129.99086	641.4016113	-863.1932373	84.57342529	641.1692505	-884.7163086	53.17102814	322.9489746	-796.0394287	97.77840424	265.7997131	-763.8773804	53.68828964	262.0527649	-787.4321899	46.57892227	39.02779007	-816.3311768	245.1441193	45.79782104	-756.2050171	183.4436188	36.07330322	-665.2158203	359.2352295	1219.410645	-1167.817993	328.3098145	1071.251953	-1155.215332	232.6264191	1311.147217	-1350.995117	100.5720367	1225.809448	-1367.422607	66.38643646	1183.748413	-1329.613281	66.58585358	1181.760742	-1380.883789	47.88573074	1148.046997	-1461.751953	91.00730133	1158.737427	-1509.613159	90.74151611	1194.316284	-1474.104004	140.1043396	1233.471558	-1529.434082	260.0350952	1323.417725	-976.4716187	130.5376587	1229.841797	-932.4453735	76.02519989	1207.062988	-921.5897827	82.37055969	1207.203735	-846.6223145	133.7528076	1246.17688	-851.427063	120.5448837	1233.667114	-803.1513672	157.361145	1271.781982	-781.8071899	0.0233129	0.0122177	-0.034287501	0.00531854	7.40E-19	-0.0120825	0.00529608	0.018647199	-0.026229201	0.125916004	0.091027498	-0.344134986	0.242167994	2.072949886	-0.176202998	2.207449913	0	0
